<?xml version="1.0" encoding="UTF-8"?><svg id="Camada_2" xmlns="http://www.w3.org/2000/svg" viewBox="0 0 609.84 61.75"><defs><style>.cls-1{fill:#e2e3e3;}.cls-1,.cls-2{fill-rule:evenodd;}.cls-2{fill:#e42313;}</style></defs><g id="Layer_1"><path class="cls-2" d="m192.6,42.98h0c21.1,0,40.61-4.32,56.38-11.52-15.91-7.49-34.99-11.88-56.38-11.88V.86c11.95-.07,72.36,1.01,72.36,29.23s-60.41,31.25-72.36,31.54v-18.65Zm-56.45-11.52c15.91,7.42,34.99,11.52,56.45,11.52v18.65c-1.37.07-2.09.07-2.09.07-16.27,0-70.34-4.54-70.34-31.68S190.51.86,190.51.86h2.09v18.72h-.07c-21.1,0-40.61,4.61-56.38,11.88Z"/><path class="cls-1" d="m461.02,1.44h19.44v55.94h-19.44V1.44h0Zm34.2,0h19.44v29.88s6.34,11.45,95.18,11.45v18.86c-41.83,0-114.62-1.08-114.62-30.24V1.44h0Zm-135.94,30.53c.79-1.3,14.83-24.19,52.7-30.82,36.36-6.34,34.2,30.67,34.27,33.84v22.39h-19.44v-22.9c0-20.02-14.83-13.61-14.83-13.61-32.9,11.45-42.19,36.5-42.19,36.5h-21.02s-9.29-25.06-42.19-36.5c0,0-14.83-6.41-14.83,13.61v22.9h-19.37v-22.39c.07-3.17-2.09-40.18,34.2-33.84,37.87,6.62,51.91,29.52,52.7,30.82h0ZM112.75,0v19.8c-70.06,0-92.66,3.31-92.74,11.59.07,8.35,22.68,10.44,92.74,10.44v19.8C93.1,61.27.07,66.74,0,31.46.07-3.89,92.81.65,112.75,0Z"/></g></svg>